#!OML:ASF H:\MichaelJackson\Top Level 1\Subject 1\Session 1\male.ASF
:FULLY-SPECIFIED
:DEGREES
672
root -9.78914 16.3655 30.4723 -352.972 6.79952 2.00693
lowerback -3.64657 -3.53696 3.81493
upperback -1.74256 -4.83615 -4.97971
thorax -0.515519 -2.50255 -7.4596
lowerneck -8.49239 -1.76403 4.06243
upperneck 5.69853 -2.82712 -0.111597
head 3.2819 -1.3128 -0.904712
rclavicle -7.02704e-014 -2.54444e-014
rhumerus 9.3509 8.65276 11.7166
rradius 55.0827
rwrist -25.7499
rhand 12.8669 -17.0561
rfingers 7.12502
rthumb 37.8401 -42.8986
lclavicle -7.02704e-014 -2.54444e-014
lhumerus -50.0012 -32.9952 111.272
lradius 43.1501
lwrist 19.9244
lhand 41.8442 37.061
lfingers 7.12502
lthumb 63.9052 45.9613
rfemur -20.6798 -3.60973 -0.464514
rtibia 38.0761
rfoot -24.5437 11.6367
rtoes -33.1133
lfemur -1.53601 -8.48816 2.58837
ltibia 9.50885
lfoot -18.8113 -33.9727
ltoes -2.76183
673
root -9.82461 16.3262 30.4648 -352.794 6.20913 1.97548
lowerback -3.72095 -3.42502 3.94654
upperback -1.78681 -4.69326 -4.95028
thorax -0.505743 -2.43276 -7.50612
lowerneck -8.50604 -1.58956 4.22343
upperneck 5.65935 -2.60301 -0.239205
head 3.27361 -1.20387 -0.963206
rclavicle -8.4235e-015 -2.54444e-014
rhumerus 11.4995 5.33605 11.2856
rradius 48.9599
rwrist -24.2988
rhand 9.61486 -19.3168
rfingers 7.12502
rthumb 34.761 -45.9283
lclavicle -8.4235e-015 -2.54444e-014
lhumerus -50.0813 -33.2659 111.537
lradius 43.0702
lwrist 20.208
lhand 41.9397 37.1783
lfingers 7.12502
lthumb 63.9823 45.9634
rfemur -21.1958 -3.85741 -0.146475
rtibia 38.3645
rfoot -25.9024 10.9482
rtoes -33.4605
lfemur -1.06609 -7.8777 2.43803
ltibia 9.25212
lfoot -21.3763 -31.9913
ltoes -6.33206
674
root -9.85723 16.2897 30.4552 -352.59 5.65011 1.90167
lowerback -3.77822 -3.30659 4.13595
upperback -1.83923 -4.54367 -4.90385
thorax -0.51575 -2.36093 -7.56588
lowerneck -8.54946 -1.42355 4.35948
upperneck 5.60385 -2.38839 -0.370531
head 3.26614 -1.1006 -1.0194
rclavicle 6.16978e-014 1.11319e-014
rhumerus 13.5562 1.22382 10.2212
rradius 43.2156
rwrist -22.7986
rhand 7.45318 -22.1923
rfingers 7.12502
rthumb 32.707 -49.2539
lclavicle 6.16978e-014 1.11319e-014
lhumerus -50.1573 -33.577 111.865
lradius 42.9373
lwrist 20.3654
lhand 42.135 37.1934
lfingers 7.12502
lthumb 64.1396 45.7406
rfemur -21.8186 -4.11822 0.205183
rtibia 38.7555
rfoot -26.9792 10.366
rtoes -33.784
lfemur -0.66322 -7.28064 2.31944
ltibia 9.03719
lfoot -23.6164 -29.704
ltoes -9.70099
675
root -9.88719 16.2563 30.4424 -352.372 5.1234 1.78541
lowerback -3.79214 -3.17942 4.37913
upperback -1.89147 -4.38341 -4.83974
thorax -0.550152 -2.28498 -7.63453
lowerneck -8.62038 -1.26885 4.46805
upperneck 5.50118 -2.18648 -0.504171
head 3.24816 -1.00512 -1.07204
rclavicle -8.62228e-014 -3.81667e-014
rhumerus 15.5819 -4.0753 8.33463
rradius 38.0146
rwrist -20.8442
rhand 6.40795 -25.3299
rfingers 7.12502
rthumb 31.712 -52.5932
lclavicle -8.62228e-014 -3.81667e-014
lhumerus -50.2256 -33.9205 112.254
lradius 42.7624
lwrist 20.4051
lhand 42.3685 37.1226
lfingers 7.12502
lthumb 64.3271 45.3814
rfemur -22.5587 -4.35431 0.573452
rtibia 39.2656
rfoot -27.758 9.98693
rtoes -33.9963
lfemur -0.334468 -6.6937 2.23866
ltibia 8.87189
lfoot -25.4418 -27.2354
ltoes -12.6918
676
root -9.91487 16.2264 30.4261 -352.148 4.64046 1.64922
lowerback -3.74462 -3.04967 4.6461
upperback -1.9324 -4.21859 -4.76302
thorax -0.60631 -2.20738 -7.69988
lowerneck -8.73391 -1.12438 4.57207
upperneck 5.33511 -1.99783 -0.6604
head 3.21659 -0.918276 -1.13189
rclavicle 2.75068e-014 1.59028e-014
rhumerus 17.8143 -11.0429 5.30552
rradius 33.482
rwrist -17.8562
rhand 6.39828 -28.1893
rfingers 7.12502
rthumb 31.7028 -55.4544
lclavicle 2.75068e-014 1.59028e-014
lhumerus -50.2824 -34.2764 112.683
lradius 42.5629
lwrist 20.3416
lhand 42.5699 36.9801
lfingers 7.12502
lthumb 64.4882 44.9867
rfemur -23.3968 -4.52834 0.921186
rtibia 39.8877
rfoot -28.2486 9.86346
rtoes -33.9955
lfemur -0.0811583 -6.14622 2.18009
ltibia 8.74802
lfoot -26.8309 -24.6946
ltoes -15.2531
677
root -9.94107 16.1993 30.4062 -351.923 4.21293 1.51297
lowerback -3.63296 -2.91998 4.9043
upperback -1.95426 -4.05079 -4.68039
thorax -0.675929 -2.1281 -7.75084
lowerneck -8.88634 -0.993973 4.67497
upperneck 5.08841 -1.82848 -0.833093
head 3.16463 -0.843019 -1.19754
rclavicle -2.1419e-014 -1.03368e-014
rhumerus 20.5483 -19.4967 1.0015
rradius 29.9758
rwrist -14.2316
rhand 6.43053 -30.8627
rfingers 7.12502
rthumb 31.7335 -58.1218
lclavicle -2.1419e-014 -1.03368e-014
lhumerus -50.3333 -34.6335 113.136
lradius 42.3708
lwrist 20.1882
lhand 42.6925 36.7669
lfingers 7.12502
lthumb 64.5861 44.6181
rfemur -24.2999 -4.61496 1.22374
rtibia 40.5932
rfoot -28.4788 10.0003
rtoes -33.6865
lfemur 0.100059 -5.64903 2.13593
ltibia 8.64379
lfoot -27.8182 -22.2024
ltoes -17.4077
678
root -9.96695 16.1749 30.3837 -351.707 3.86261 1.3961
lowerback -3.46161 -2.80191 5.11846
upperback -1.95425 -3.89408 -4.60139
thorax -0.754365 -2.05365 -7.77812
lowerneck -9.04156 -0.876586 4.79212
upperneck 4.74045 -1.67822 -1.00928
head 3.07832 -0.778706 -1.26661
rclavicle -2.26118e-014 -1.90833e-014
rhumerus 24.3703 -28.8496 -4.77792
rradius 27.4829
rwrist -10.5614
rhand 5.95843 -33.1747
rfingers 7.12502
rthumb 31.2837 -60.5217
lclavicle -2.26118e-014 -1.90833e-014
lhumerus -50.3933 -34.968 113.581
lradius 42.2224
lwrist 19.9618
lhand 42.7151 36.4926
lfingers 7.12502
lthumb 64.604 44.3152
rfemur -25.2085 -4.60084 1.46532
rtibia 41.3375
rfoot -28.5126 10.3108
rtoes -33.0411
lfemur 0.226729 -5.22873 2.10275
ltibia 8.51867
lfoot -28.4674 -19.8697
ltoes -19.2401
679
root -9.99336 16.153 30.3603 -351.507 3.6107 1.31516
lowerback -3.24907 -2.70742 5.25639
upperback -1.93078 -3.76407 -4.53169
thorax -0.830901 -1.99103 -7.7706
lowerneck -9.16877 -0.769635 4.92586
upperneck 4.28999 -1.54445 -1.16293
head 2.95179 -0.722963 -1.33029
rclavicle -7.55382e-015 5.56597e-015
rhumerus 29.3175 -37.4344 -11.5014
rradius 26.0826
rwrist -8.51002
rhand 4.64115 -35.1634
rfingers 7.12502
rthumb 30.0276 -62.7457
lclavicle -7.55382e-015 5.56597e-015
lhumerus -50.4612 -35.2671 113.996
lradius 42.1284
lwrist 19.6976
lhand 42.625 36.1655
lfingers 7.12502
lthumb 64.5322 44.1024
rfemur -26.0574 -4.49744 1.64109
rtibia 42.0717
rfoot -28.4805 10.6179
rtoes -32.2238
lfemur 0.318604 -4.90968 2.07834
ltibia 8.32963
lfoot -28.8445 -17.8013
ltoes -20.7879
680
root -10.0207 16.1334 30.3376 -351.324 3.47064 1.28058
lowerback -3.02647 -2.64446 5.30016
upperback -1.88661 -3.67256 -4.4772
thorax -0.892737 -1.94559 -7.72586
lowerneck -9.24794 -0.672303 5.08403
upperneck 3.76322 -1.42707 -1.27847
head 2.79061 -0.674681 -1.38493
rclavicle -3.82164e-014 -3.81667e-014
rhumerus 33.6669 -43.1933 -16.9346
rradius 25.9868
rwrist -10.2504
rhand 2.01794 -37.088
rfingers 7.12502
rthumb 27.5217 -65.0964
lclavicle -3.82164e-014 -3.81667e-014
lhumerus -50.5411 -35.5158 114.362
lradius 42.0923
lwrist 19.4389
lhand 42.4148 35.8161
lfingers 7.12502
lthumb 64.3642 44.0172
rfemur -26.7952 -4.33311 1.75621
rtibia 42.7507
rfoot -28.4621 10.7628
rtoes -31.4736
lfemur 0.402478 -4.70634 2.06324
ltibia 8.02722
lfoot -29.0105 -16.0595
ltoes -22.1257
681
root -10.049 16.1162 30.3174 -351.157 3.44423 1.28674
lowerback -2.82571 -2.62002 5.25435
upperback -1.82998 -3.63094 -4.43841
thorax -0.933236 -1.92315 -7.6483
lowerneck -9.26184 -0.576351 5.27149
upperneck 3.20313 -1.31515 -1.34133
head 2.607 -0.627408 -1.42649
rclavicle -3.4837e-014 -2.78299e-014
rhumerus 35.1118 -45.5769 -18.7119
rradius 27.2019
rwrist -16.2422
rhand -1.40369 -38.9755
rfingers 7.12502
rthumb 24.2452 -67.4626
lclavicle -3.4837e-014 -2.78299e-014
lhumerus -50.6279 -35.6974 114.657
lradius 42.1072
lwrist 19.222
lhand 42.1187 35.4613
lfingers 7.12502
lthumb 64.1265 44.0285
rfemur -27.3933 -4.14107 1.83116
rtibia 43.3421
rfoot -28.5417 10.6149
rtoes -31.0801
lfemur 0.495973 -4.61823 2.06837
ltibia 7.58257
lfoot -29.0207 -14.6703
ltoes -23.2963
682
root -10.0775 16.1018 30.3008 -351.004 3.52733 1.31243
lowerback -2.66862 -2.63624 5.15194
upperback -1.76855 -3.64417 -4.41038
thorax -0.950784 -1.92679 -7.5523
lowerneck -9.2107 -0.47633 5.46984
upperneck 2.66467 -1.19927 -1.33348
head 2.42019 -0.575629 -1.44621
rclavicle -2.4202e-014 -4.05521e-014
rhumerus 34.325 -46.0527 -17.9198
rradius 29.0189
rwrist -23.4254
rhand -4.61034 -40.4069
rfingers 7.12502
rthumb 21.1678 -69.2713
lclavicle -2.4202e-014 -4.05521e-014
lhumerus -50.7102 -35.8046 114.873
lradius 42.1493
lwrist 19.0983
lhand 41.7536 35.154
lfingers 7.12502
lthumb 63.832 44.163
rfemur -27.8413 -3.94028 1.89862
rtibia 43.8291
rfoot -28.6957 10.156
rtoes -31.0866
lfemur 0.608688 -4.63803 2.11344
ltibia 6.99491
lfoot -28.9223 -13.625
ltoes -24.3333
683
root -10.1048 16.0905 30.2882 -350.867 3.69832 1.34116
lowerback -2.56752 -2.68896 5.02841
upperback -1.70781 -3.70801 -4.38776
thorax -0.945087 -1.95498 -7.45293
lowerneck -9.11475 -0.367046 5.67798
upperneck 2.20352 -1.07137 -1.27895
head 2.25285 -0.515566 -1.45261
rclavicle -1.69961e-014 0
rhumerus 31.8902 -45.0823 -15.2672
rradius 31.0346
rwrist -29.9589
rhand -6.76006 -41.2623
rfingers 7.12502
rthumb 19.1016 -70.3443
lclavicle -1.69961e-014 0
lhumerus -50.7777 -35.8355 115.009
lradius 42.1966
lwrist 19.1061
lhand 41.3319 34.9257
lfingers 7.12502
lthumb 63.4897 44.4323
rfemur -28.1525 -3.7407 1.97298
rtibia 44.2102
rfoot -28.9271 9.41445
rtoes -31.5126
lfemur 0.736003 -4.74353 2.20159
ltibia 6.30835
lfoot -28.7559 -12.8752
ltoes -25.2597
